<svg xmlns="http://www.w3.org/2000/svg" width="520" height="156"><path fill="none" d="M110.248 36.665h305.446v60.272H110.248z"/><path fill="#004990" d="M461.864 10l-9.787 39.829c-2.322-4.806-6.188-8.762-11.5-11.584-6.952-3.654-16.603-5.432-29.502-5.432l-17.706 1.28-14.543 2.579c-.522-1.411-1.114-2.763-1.827-4.015v-.014c-2.69-4.831-6.645-8.834-11.695-11.838-4.624-2.696-9.896-4.526-15.809-5.543-.02 0-17.672-1.333-17.672-1.333h-42.455l-5.071 20.684h-33.129s-7.879 12.783-10.603 17.125c-.213-1.766-2.39-17.125-2.39-17.125h-48.526s.375 2.059.945 5.331a37.668 37.668 0 0 0-2.797-1.699c-6.938-3.654-16.597-5.432-29.497-5.432l-17.708 1.28-14.546 2.579c-.517-1.391-1.104-2.735-1.821-4.015-2.702-4.845-6.625-8.849-11.707-11.853-4.621-2.696-9.899-4.526-15.814-5.543l-17.66-1.333H36.585L10 122.386h49.543s4.778-19.427 6.772-27.574c14.169-.17 26.208-2.671 35.971-7.387-.671 2.746-1.084 5.596-1.084 8.658 0 8.203 3.321 15.358 9.625 20.608 5.918 4.976 13.384 7.521 22.224 7.521l11.257-1.059s1.392-.45 2.406-.769h41.026l10.14-41.346c2.135 11.98 3.984 22.383 4.499 25.322-3.918 5.588-27.67 39.438-27.67 39.438h54.735l43.218-63.689-9.874 40.275h49.551s4.742-19.427 6.754-27.574c14.182-.17 26.216-2.671 35.95-7.387-.635 2.746-1.078 5.596-1.078 8.658 0 8.203 3.341 15.358 9.631 20.608 5.939 4.976 13.402 7.521 22.209 7.521l11.296-1.059s1.406-.45 2.367-.769h82.938L510.001 10h-48.137"/><path fill="#FFF" d="M84.74 62.756c-3.923 2.691-9.362 4.038-16.397 4.038h-8.329l6.202-25.219h9.329c4.987 0 8.746.785 11.291 2.369 2.518 1.59 3.806 4.029 3.806 7.281-.001 5.002-1.966 8.83-5.902 11.531m28.122-24.511c-1.641-2.939-4.052-5.354-7.187-7.194-3.151-1.841-6.924-3.16-11.288-3.917-4.369-.751-9.474-1.123-15.344-1.123H46.806l-20.653 84.27h23.201L56.087 82.8h8.79c15.917 0 28.304-3.071 37.166-9.207 8.868-6.167 13.291-14.244 13.291-24.266 0-4.421-.827-8.104-2.472-11.082zm47.316 55.483c-2.112 1.441-4.378 2.612-6.792 3.56-2.408.919-4.691 1.374-6.813 1.374-3.218 0-5.677-.41-7.387-1.324-1.702-.889-2.554-2.422-2.554-4.599 0-2.464.653-4.465 1.941-5.979 1.255-1.494 3.112-2.676 5.563-3.5 2.344-.779 5.193-1.383 8.555-1.805 3.333-.414 6.924-.752 10.776-1.06l-3.289 13.333m-4.068 16.552h21.428l10.625-43.251c.243-.902.425-1.961.567-3.16.126-1.21.221-2.196.221-2.954 0-5.476-2.489-9.5-7.426-12.118-4.909-2.606-12.669-3.906-23.225-3.906-5.258 0-10.494.386-15.764 1.131-5.28.791-9.178 1.467-11.692 2.076l-3.163 15.208h1.964c2.144-.732 5.37-1.685 9.646-2.822 4.303-1.137 8.197-1.685 11.76-1.685 5.228 0 9.156.517 11.776 1.573 2.644 1.059 3.951 2.906 3.951 5.532 0 .634-.07 1.202-.182 1.729-.148.528-.254.894-.291 1.123-7.451.411-14.372 1.04-20.765 1.925-6.407.863-11.937 2.288-16.563 4.244-4.937 2.064-8.672 4.873-11.184 8.371-2.512 3.486-3.744 7.744-3.744 12.785 0 4.761 1.749 8.608 5.3 11.587 3.513 2.962 8.098 4.456 13.702 4.456 3.473 0 6.194-.24 8.164-.704a47.693 47.693 0 0 0 6.289-2.031c1.66-.665 3.448-1.606 5.362-2.8a675.257 675.257 0 0 1 4.887-3.051l-1.643 6.742zm66.296 23.432h-23.844l17.32-24.648-11.087-62.376h22.12l5.829 41.692 25.803-41.692h22.888l-59.029 87.024m115.105-70.956c-3.918 2.691-9.363 4.038-16.385 4.038h-8.334l6.194-25.219h9.332c4.976 0 8.759.785 11.299 2.369 2.537 1.59 3.791 4.029 3.791 7.281 0 5.002-1.935 8.83-5.897 11.531m28.11-24.511c-1.641-2.939-4.032-5.354-7.142-7.194-3.174-1.841-6.951-3.16-11.335-3.917-4.359-.751-9.436-1.123-15.322-1.123h-32.255l-20.645 84.27h23.216l6.733-27.481h8.793c15.908 0 28.3-3.071 37.154-9.207 8.859-6.167 13.291-14.244 13.291-24.266.002-4.421-.831-8.104-2.488-11.082zm47.347 55.483c-2.12 1.441-4.403 2.612-6.803 3.56-2.406.919-4.686 1.374-6.781 1.374-3.247 0-5.733-.41-7.396-1.324-1.725-.889-2.573-2.422-2.573-4.599 0-2.464.64-4.465 1.925-5.979 1.271-1.494 3.102-2.676 5.56-3.5 2.37-.779 5.2-1.383 8.556-1.805 3.361-.414 6.969-.752 10.782-1.06l-3.27 13.333m-4.102 16.552h21.47l10.601-43.251c.237-.902.433-1.961.575-3.16.14-1.21.221-2.196.221-2.954 0-5.476-2.489-9.5-7.424-12.118-4.909-2.606-12.674-3.906-23.234-3.906-5.223 0-10.506.386-15.762 1.131-5.286.791-9.172 1.467-11.712 2.076l-3.157 15.208h1.992c2.126-.732 5.345-1.685 9.634-2.822 4.294-1.137 8.191-1.685 11.748-1.685 5.256 0 9.15.517 11.8 1.573 2.632 1.059 3.956 2.906 3.956 5.532 0 .634-.087 1.202-.221 1.729-.146.528-.204.894-.263 1.123-7.485.411-14.392 1.04-20.782 1.925-6.387.863-11.907 2.288-16.552 4.244-4.95 2.064-8.675 4.873-11.192 8.371-2.495 3.486-3.749 7.744-3.749 12.785 0 4.761 1.766 8.608 5.313 11.587 3.549 2.962 8.078 4.456 13.677 4.456 3.507 0 6.211-.24 8.195-.704a45.432 45.432 0 0 0 6.261-2.031c1.671-.665 3.476-1.606 5.362-2.8a262.66 262.66 0 0 1 4.945-3.051l-1.702 6.742zm84.984-88.196l-21.649 88.196h-21.798l21.65-88.196h21.797"/></svg>
