<?xml version="1.0" encoding="UTF-8" standalone="no"?>
<svg
   xmlns:dc="http://purl.org/dc/elements/1.1/"
   xmlns:cc="http://creativecommons.org/ns#"
   xmlns:rdf="http://www.w3.org/1999/02/22-rdf-syntax-ns#"
   xmlns:svg="http://www.w3.org/2000/svg"
   xmlns="http://www.w3.org/2000/svg"
   viewBox="0 0 864 1104"
   height="1104"
   width="864"
   xml:space="preserve"
   id="svg2"
   version="1.1"><metadata
     id="metadata8"><rdf:RDF><cc:Work
         rdf:about=""><dc:format>image/svg+xml</dc:format><dc:type
           rdf:resource="http://purl.org/dc/dcmitype/StillImage" /></cc:Work></rdf:RDF></metadata><defs
     id="defs6"><clipPath
       id="clipPath18"
       clipPathUnits="userSpaceOnUse"><path
         id="path16"
         d="M 0,828 H 648 V 0 H 0 Z" /></clipPath><clipPath
       id="clipPath26"
       clipPathUnits="userSpaceOnUse"><path
         id="path24"
         d="m 259.625,707.199 h 32.593 v -61.428 h -32.593 z" /></clipPath><clipPath
       id="clipPath42"
       clipPathUnits="userSpaceOnUse"><path
         id="path40"
         d="m 246.642,702.371 h 34.016 v -56.6 h -34.016 z" /></clipPath><clipPath
       id="clipPath58"
       clipPathUnits="userSpaceOnUse"><path
         id="path56"
         d="m 222.253,682.527 h 52.463 v -40.222 h -52.463 z" /></clipPath><clipPath
       id="clipPath74"
       clipPathUnits="userSpaceOnUse"><path
         id="path72"
         d="m 210.968,666.248 h 61.428 v -32.595 h -61.428 z" /></clipPath><clipPath
       id="clipPath90"
       clipPathUnits="userSpaceOnUse"><path
         id="path88"
         d="m 216.053,653.986 h 56.6 v -34.017 h -56.6 z" /></clipPath><clipPath
       id="clipPath106"
       clipPathUnits="userSpaceOnUse"><path
         id="path104"
         d="m 235.697,648.969 h 40.224 v -52.465 h -40.224 z" /></clipPath><clipPath
       id="clipPath122"
       clipPathUnits="userSpaceOnUse"><path
         id="path120"
         d="m 253.987,664.236 h 36.199 v -36.199 h -36.199 z" /></clipPath></defs><g
     transform="matrix(1.3333333,0,0,-1.3333333,0,1104)"
     id="g10"><g
       id="g12"><g
         clip-path="url(#clipPath18)"
         id="g14"><g
           id="g20"><g
             id="g22" /><g
             id="g34"><g
               id="g32"
               clip-path="url(#clipPath26)"><g
                 id="g30"
                 transform="translate(278.6987,707.1992)"><path
                   id="path28"
                   style="fill:#ffde17;fill-opacity:1;fill-rule:nonzero;stroke:none"
                   d="m 0,0 c 0,0 -1.734,-7.514 -6.938,-16.185 -5.201,-8.67 -12.136,-7.514 -12.136,-21.965 0,-14.452 6.935,-21.965 13.293,-23.121 6.359,-1.157 11.761,4.176 15.607,12.138 3.252,6.732 6.358,19.075 0,31.214 C 3.467,-5.78 0,0 0,0" /></g></g></g></g><g
           id="g36"><g
             id="g38" /><g
             id="g50"><g
               style="opacity:0.80000299"
               id="g48"
               clip-path="url(#clipPath42)"><g
                 id="g46"
                 transform="translate(247.4653,702.3711)"><path
                   id="path44"
                   style="fill:#ffde17;fill-opacity:1;fill-rule:nonzero;stroke:none"
                   d="m 0,0 c 0,0 2.256,-7.375 2.084,-17.485 -0.17,-10.111 -6.754,-12.578 0.471,-25.092 7.226,-12.516 16.99,-15.554 23.074,-13.376 6.084,2.178 8.098,9.497 7.447,18.316 -0.549,7.455 -4.031,19.698 -15.607,27.032 C 5.893,-3.272 0,0 0,0" /></g></g></g></g><g
           id="g52"><g
             id="g54" /><g
             id="g66"><g
               style="opacity:0.55000299"
               id="g64"
               clip-path="url(#clipPath58)"><g
                 id="g62"
                 transform="translate(222.2534,682.5181)"><path
                   id="path60"
                   style="fill:#ffde17;fill-opacity:1;fill-rule:nonzero;stroke:none"
                   d="m 0,0 c 0,0 5.641,-5.259 10.547,-14.101 4.908,-8.839 0.439,-14.269 12.953,-21.494 12.516,-7.226 22.49,-4.975 26.67,-0.047 4.182,4.928 2.266,12.274 -2.707,19.586 C 43.26,-9.874 34.123,-1.013 20.432,-0.45 6.738,0.112 0,0 0,0" /></g></g></g></g><g
           id="g68"><g
             id="g70" /><g
             id="g82"><g
               style="opacity:0.5"
               id="g80"
               clip-path="url(#clipPath74)"><g
                 id="g78"
                 transform="translate(210.9683,652.7275)"><path
                   id="path76"
                   style="fill:#ffde17;fill-opacity:1;fill-rule:nonzero;stroke:none"
                   d="m 0,0 c 0,0 7.514,-1.732 16.184,-6.938 8.671,-5.201 7.515,-12.137 21.964,-12.136 14.454,-0.002 21.965,6.935 23.122,13.293 C 62.428,0.578 57.096,5.981 49.131,9.827 42.4,13.08 30.057,16.186 17.918,9.826 5.779,3.467 0,0 0,0" /></g></g></g></g><g
           id="g84"><g
             id="g86" /><g
             id="g98"><g
               style="opacity:0.39999402"
               id="g96"
               clip-path="url(#clipPath90)"><g
                 id="g94"
                 transform="translate(216.0527,620.793)"><path
                   id="path92"
                   style="fill:#ffde17;fill-opacity:1;fill-rule:nonzero;stroke:none"
                   d="m 0,0 c 0,0 7.375,2.256 17.486,2.084 10.11,-0.17 12.577,-6.754 25.09,0.471 12.518,7.225 15.555,16.989 13.377,23.073 -2.178,6.086 -9.498,8.1 -18.316,7.448 C 30.182,32.527 17.938,29.045 10.605,17.469 3.273,5.893 0,0 0,0" /></g></g></g></g><g
           id="g100"><g
             id="g102" /><g
             id="g114"><g
               style="opacity:0.30000299"
               id="g112"
               clip-path="url(#clipPath106)"><g
                 id="g110"
                 transform="translate(235.7065,596.5044)"><path
                   id="path108"
                   style="fill:#ffde17;fill-opacity:1;fill-rule:nonzero;stroke:none"
                   d="m 0,0 c 0,0 5.26,5.642 14.103,10.549 8.839,4.907 14.268,0.439 21.493,12.952 7.227,12.517 4.975,22.491 0.048,26.671 C 30.715,54.354 23.369,52.438 16.057,47.464 9.875,43.261 1.014,34.123 0.451,20.432 -0.111,6.74 0,0 0,0" /></g></g></g></g><g
           id="g116"><g
             id="g118" /><g
             id="g130"><g
               id="g128"
               clip-path="url(#clipPath122)"><g
                 id="g126"
                 transform="translate(253.9868,646.1367)"><path
                   id="path124"
                   style="fill:#fbb03f;fill-opacity:1;fill-rule:nonzero;stroke:none"
                   d="m 0,0 c 0,-9.996 8.104,-18.1 18.1,-18.1 9.996,0 18.099,8.104 18.099,18.1 0,9.996 -8.103,18.1 -18.099,18.1 C 8.104,18.1 0,9.996 0,0" /></g></g></g></g><g
           transform="translate(315.0093,638.5908)"
           id="g132"><path
             id="path134"
             style="fill:#434242;fill-opacity:1;fill-rule:nonzero;stroke:none"
             d="m 0,0 c -1.756,0 -3.982,0.251 -5.676,0.972 0.125,0.909 0.407,1.944 0.69,2.697 1.662,-0.722 3.512,-1.035 5.268,-1.035 2.414,0 3.668,1.097 3.668,3.136 0,4.515 -9.595,3.982 -9.595,10.096 0,3.826 3.042,5.896 7.275,5.896 1.349,0 3.136,-0.158 4.453,-0.471 -0.031,-0.689 -0.22,-1.913 -0.471,-2.728 -1.285,0.345 -3.072,0.565 -4.421,0.565 -2.853,0 -3.731,-1.224 -3.731,-2.98 0,-4.013 9.595,-3.669 9.595,-10.096 C 7.055,2.352 4.358,0 0,0" /></g><g
           transform="translate(334.6484,638.9043)"
           id="g136"><path
             id="path138"
             style="fill:#434242;fill-opacity:1;fill-rule:nonzero;stroke:none"
             d="m 0,0 v 1.411 h -0.156 c -1.536,-1.191 -3.011,-1.724 -4.767,-1.724 -2.476,0 -4.609,1.191 -4.609,4.954 v 11.633 c 0.784,0.094 1.944,0.188 2.822,0.188 V 4.86 c 0,-1.631 0.722,-2.633 2.791,-2.633 1.536,0 2.759,0.438 3.919,1.128 v 12.919 c 0.784,0.094 1.944,0.188 2.822,0.188 V 0 Z" /></g><g
           transform="translate(351.2871,638.9043)"
           id="g140"><path
             id="path142"
             style="fill:#434242;fill-opacity:1;fill-rule:nonzero;stroke:none"
             d="m 0,0 v 11.57 c 0,1.6 -0.689,2.572 -2.728,2.572 -1.568,0 -2.822,-0.439 -4.077,-1.286 V 0 h -2.79 v 16.243 c 0.752,0.125 1.944,0.188 2.79,0.188 v -1.599 h 0.158 c 1.63,1.411 3.135,1.85 4.829,1.85 2.476,0 4.64,-1.192 4.64,-4.986 L 2.822,0 Z" /></g><g
           transform="translate(366.5625,659.5684)"
           id="g144"><path
             id="path146"
             style="fill:#434242;fill-opacity:1;fill-rule:nonzero;stroke:none"
             d="m 0,0 c -0.439,0.063 -1.035,0.094 -1.505,0.094 -1.442,0 -2.007,-0.752 -2.007,-2.321 v -2.069 h 3.669 c 0,-0.815 -0.094,-1.662 -0.22,-2.445 h -3.449 v -15.616 c 0,-3.042 -2.101,-5.081 -4.86,-5.081 -0.502,0 -1.191,0.064 -1.6,0.126 0,0.847 0.032,1.694 0.189,2.541 0.313,-0.064 1.066,-0.095 1.505,-0.095 1.348,0 1.975,0.628 1.975,2.32 v 15.805 h -1.944 v 2.445 h 1.944 v 1.882 c 0,3.292 2.352,5.079 4.892,5.079 0.533,0 1.191,-0.062 1.599,-0.125 C 0.188,1.693 0.157,0.815 0,0" /></g><g
           transform="translate(370.7012,638.9043)"
           id="g148"><path
             id="path150"
             style="fill:#434242;fill-opacity:1;fill-rule:nonzero;stroke:none"
             d="m 0,0 v 23.11 c 0.752,0.125 1.943,0.219 2.79,0.219 V 0 Z" /></g><g
           transform="translate(385.4697,653.1406)"
           id="g152"><path
             id="path154"
             style="fill:#434242;fill-opacity:1;fill-rule:nonzero;stroke:none"
             d="m 0,0 c -2.352,0 -4.014,-1.38 -4.014,-6.052 0,-4.578 1.38,-6.052 3.92,-6.052 2.54,0 4.108,1.442 4.108,6.052 C 4.014,-1.537 2.478,0 0,0 m -0.094,-14.55 c -4.202,0 -6.961,2.509 -6.961,8.498 0,5.424 2.916,8.497 7.055,8.497 4.045,0 7.024,-2.32 7.024,-8.497 0,-5.707 -3.104,-8.498 -7.118,-8.498" /></g><g
           transform="translate(412.9023,638.9043)"
           id="g156"><path
             id="path158"
             style="fill:#434242;fill-opacity:1;fill-rule:nonzero;stroke:none"
             d="m 0,0 h -2.822 l -3.606,11.163 c -0.188,0.565 -0.344,1.254 -0.439,2.007 H -6.992 C -7.087,12.417 -7.274,11.728 -7.463,11.132 L -10.943,0 h -2.854 c -1.567,5.111 -2.885,10.724 -3.856,16.243 0.783,0.125 1.943,0.188 2.727,0.188 l 2.415,-11.132 c 0.125,-0.627 0.25,-1.474 0.314,-2.163 h 0.156 c 0.094,0.689 0.251,1.536 0.471,2.226 l 3.449,11.006 h 2.696 L -1.944,5.331 C -1.756,4.735 -1.567,3.92 -1.442,3.136 h 0.126 c 0.093,0.784 0.218,1.505 0.376,2.226 l 2.351,11.069 c 0.784,0 1.787,-0.063 2.509,-0.188 C 2.947,10.724 1.662,5.425 0,0" /></g><g
           transform="translate(422.4346,648.5625)"
           id="g160"><path
             id="path162"
             style="fill:#434242;fill-opacity:1;fill-rule:nonzero;stroke:none"
             d="M 0,0 H 6.836 C 6.867,0.251 6.867,0.752 6.867,0.972 6.867,3.668 5.676,4.797 3.575,4.797 1.411,4.797 0.095,3.449 0,0 M 9.564,-2.164 H -0.031 V -2.32 c 0,-3.418 1.129,-4.987 4.515,-4.987 1.505,0 3.23,0.44 4.203,1.036 0.282,-0.753 0.564,-1.788 0.689,-2.634 -1.223,-0.722 -3.23,-1.067 -4.954,-1.067 -4.892,0 -7.494,2.728 -7.494,8.279 0,6.051 2.884,8.716 6.71,8.716 3.982,0 6.02,-2.445 6.02,-6.647 0,-0.689 -0.031,-1.787 -0.094,-2.54" /></g><g
           transform="translate(444.5479,652.4814)"
           id="g164"><path
             id="path166"
             style="fill:#434242;fill-opacity:1;fill-rule:nonzero;stroke:none"
             d="m 0,0 c -0.345,0.095 -0.878,0.188 -1.411,0.188 -1.129,0 -2.227,-0.219 -3.638,-1.599 v -12.166 h -2.79 V 2.666 c 0.752,0.125 1.943,0.188 2.79,0.188 v -2.07 h 0.157 c 1.788,2.133 2.916,2.32 3.92,2.32 0.345,0 0.878,-0.031 1.254,-0.156 C 0.282,2.007 0.157,0.941 0,0" /></g><g
           transform="translate(379.7148,619.7725)"
           id="g168"><path
             id="path170"
             style="fill:#f7931d;fill-opacity:1;fill-rule:nonzero;stroke:none"
             d="M 0,0 H -2.92 L -5.078,7.515 C -5.152,7.794 -5.264,8.259 -5.282,8.779 H -5.469 C -5.487,8.277 -5.58,7.775 -5.654,7.496 L -7.663,0 h -2.94 l -1.915,9.672 c -0.093,0.447 -0.297,0.54 -0.744,0.54 h -0.762 v 0.911 c 0,1.079 0.65,1.6 1.785,1.6 1.023,0 2.027,-0.28 2.269,-1.748 l 0.949,-5.897 c 0.056,-0.39 0.13,-1.023 0.13,-1.34 h 0.186 c 0.037,0.372 0.131,0.931 0.242,1.303 l 2.027,7.496 h 2.53 L -1.953,5.022 C -1.842,4.576 -1.748,4.11 -1.711,3.738 h 0.186 c 0.018,0.354 0.074,0.875 0.149,1.284 l 1.32,7.626 c 0.707,0 1.73,-0.092 2.437,-0.242 C 1.749,8.24 0.93,4.166 0,0" /></g><g
           transform="translate(389.041,626.0596)"
           id="g172"><path
             id="path174"
             style="fill:#f7931d;fill-opacity:1;fill-rule:nonzero;stroke:none"
             d="m 0,0 c 0,1.153 -0.409,1.729 -1.357,1.729 -0.95,0 -1.526,-0.668 -1.526,-2.231 h 2.864 C 0,-0.391 0,-0.093 0,0 m 2.455,-2.177 h -5.356 v -0.111 c 0,-1.228 0.483,-1.823 2.138,-1.823 0.857,0 2.029,0.26 2.623,0.595 0.224,-0.651 0.428,-1.581 0.539,-2.362 -0.855,-0.391 -2.325,-0.595 -3.199,-0.595 -3.068,0 -4.799,1.674 -4.799,4.91 0,3.423 1.786,5.171 4.279,5.171 2.716,0 3.85,-1.729 3.85,-4.315 0,-0.409 -0.018,-1.023 -0.075,-1.47" /></g><g
           transform="translate(393.9932,619.7725)"
           id="g176"><path
             id="path178"
             style="fill:#f7931d;fill-opacity:1;fill-rule:nonzero;stroke:none"
             d="m 0,0 v 13.671 c 0.726,0.094 1.711,0.168 2.511,0.168 V 0 Z" /></g><g
           transform="translate(399.4824,619.7725)"
           id="g180"><path
             id="path182"
             style="fill:#f7931d;fill-opacity:1;fill-rule:nonzero;stroke:none"
             d="m 0,0 v 13.671 c 0.726,0.094 1.711,0.168 2.511,0.168 V 0 Z" /></g><g
           transform="translate(410.4961,619.7725)"
           id="g184"><path
             id="path186"
             style="fill:#f7931d;fill-opacity:1;fill-rule:nonzero;stroke:none"
             d="M 0,0 V 6.585 C 0,7.348 -0.261,7.7 -1.321,7.7 -1.916,7.7 -2.493,7.533 -3.014,7.198 V 0 h -2.51 v 9.616 c 0.725,0.093 1.711,0.15 2.51,0.15 V 8.798 h 0.13 c 0.987,0.931 1.731,1.098 2.549,1.098 1.525,0 2.846,-0.8 2.846,-3.033 L 2.511,0 Z" /></g><g
           transform="translate(420.8965,626.0596)"
           id="g188"><path
             id="path190"
             style="fill:#f7931d;fill-opacity:1;fill-rule:nonzero;stroke:none"
             d="m 0,0 c 0,1.153 -0.409,1.729 -1.357,1.729 -0.95,0 -1.526,-0.668 -1.526,-2.231 h 2.864 C 0,-0.391 0,-0.093 0,0 m 2.455,-2.177 h -5.356 v -0.111 c 0,-1.228 0.483,-1.823 2.138,-1.823 0.857,0 2.029,0.26 2.623,0.595 0.224,-0.651 0.428,-1.581 0.539,-2.362 -0.855,-0.391 -2.325,-0.595 -3.199,-0.595 -3.068,0 -4.799,1.674 -4.799,4.91 0,3.423 1.786,5.171 4.279,5.171 2.716,0 3.85,-1.729 3.85,-4.315 0,-0.409 -0.018,-1.023 -0.075,-1.47" /></g><g
           transform="translate(428.3037,619.5869)"
           id="g192"><path
             id="path194"
             style="fill:#f7931d;fill-opacity:1;fill-rule:nonzero;stroke:none"
             d="m 0,0 c -1.098,0 -2.307,0.278 -3.106,0.706 0.186,0.837 0.335,1.47 0.577,2.251 0.761,-0.409 2.008,-0.688 2.938,-0.688 0.633,0 0.874,0.297 0.874,0.781 0,1.321 -4.297,0.409 -4.297,3.795 0,2.213 1.972,3.236 4.112,3.236 0.65,0 1.655,-0.093 2.418,-0.298 C 3.479,9.095 3.348,8.295 3.181,7.552 2.492,7.756 1.302,7.924 0.502,7.924 c -0.613,0 -0.893,-0.279 -0.893,-0.781 0,-1.34 4.279,-0.372 4.279,-4.019 C 3.888,0.93 1.953,0 0,0" /></g><g
           transform="translate(436.8818,619.5869)"
           id="g196"><path
             id="path198"
             style="fill:#f7931d;fill-opacity:1;fill-rule:nonzero;stroke:none"
             d="m 0,0 c -1.098,0 -2.307,0.278 -3.106,0.706 0.186,0.837 0.335,1.47 0.577,2.251 0.761,-0.409 2.008,-0.688 2.938,-0.688 0.633,0 0.874,0.297 0.874,0.781 0,1.321 -4.297,0.409 -4.297,3.795 0,2.213 1.972,3.236 4.112,3.236 0.65,0 1.655,-0.093 2.418,-0.298 C 3.479,9.095 3.348,8.295 3.181,7.552 2.492,7.756 1.302,7.924 0.502,7.924 c -0.613,0 -0.893,-0.279 -0.893,-0.781 0,-1.34 4.279,-0.372 4.279,-4.019 C 3.888,0.93 1.953,0 0,0" /></g></g></g></g></svg>